<svg width="95" height="26" viewBox="0 0 95 26" fill="none" xmlns="http://www.w3.org/2000/svg">
<path d="M7.35435 20.3266C6.01185 20.3266 4.83262 20.0816 3.81668 19.5918C2.81887 19.102 2.0297 18.4035 1.44916 17.4964C0.886758 16.5893 0.596488 15.5099 0.578346 14.2581H3.62619C3.64433 15.2196 3.97088 16.0451 4.60585 16.7345C5.25896 17.4057 6.16605 17.7413 7.32713 17.7413C8.39751 17.7413 9.23203 17.4964 9.83072 17.0066C10.4294 16.4986 10.7287 15.8455 10.7287 15.0473C10.7287 14.376 10.5473 13.8227 10.1845 13.3873C9.83979 12.9337 9.29553 12.5346 8.55171 12.1899C7.80789 11.8271 6.84637 11.4552 5.66715 11.0742C4.0888 10.5662 2.92772 9.86775 2.1839 8.97879C1.44009 8.0717 1.06818 6.96504 1.06818 5.65883C1.06818 4.15305 1.61243 2.93754 2.70095 2.0123C3.78946 1.08707 5.28617 0.624447 7.19107 0.624447C9.04154 0.624447 10.5292 1.10521 11.654 2.06673C12.7788 3.01011 13.3593 4.32539 13.3956 6.01259H10.3205C10.3205 5.55904 10.1936 5.12364 9.93957 4.70637C9.68558 4.27097 9.32274 3.9172 8.85105 3.64507C8.37936 3.3548 7.79882 3.20967 7.10943 3.20967C6.25676 3.19153 5.54016 3.40016 4.95962 3.83556C4.37907 4.25283 4.0888 4.8243 4.0888 5.54997C4.0888 6.43893 4.44257 7.13739 5.15011 7.64536C5.85764 8.13519 7.00965 8.64317 8.60614 9.16928C9.60394 9.49584 10.4838 9.89496 11.2458 10.3666C12.0259 10.8202 12.6336 11.4098 13.069 12.1355C13.5226 12.843 13.7494 13.7501 13.7494 14.8568C13.7494 15.8727 13.4954 16.798 12.9874 17.6325C12.4794 18.4489 11.7447 19.102 10.7832 19.5918C9.83979 20.0816 8.69685 20.3266 7.35435 20.3266ZM17.3036 20V0.406744H20.1882V8.51617C20.551 7.84492 21.1316 7.2916 21.9298 6.85619C22.7281 6.40264 23.6261 6.17587 24.6239 6.17587C26.2929 6.17587 27.5629 6.68384 28.4337 7.69979C29.3045 8.69759 29.7399 10.1399 29.7399 12.0266V20H26.8553V12.4348C26.8553 11.31 26.5832 10.4392 26.0389 9.82239C25.4947 9.20557 24.7418 8.89715 23.7803 8.89715C22.7825 8.89715 21.9298 9.23278 21.2223 9.90403C20.5329 10.5753 20.1882 11.5459 20.1882 12.8158V20H17.3036ZM39.798 20.3266C38.5099 20.3266 37.3579 20.0363 36.342 19.4557C35.326 18.8752 34.5278 18.0588 33.9473 17.0066C33.3667 15.9362 33.0764 14.6844 33.0764 13.2512C33.0764 11.818 33.3667 10.5753 33.9473 9.52305C34.5278 8.45268 35.326 7.62722 36.342 7.04668C37.3579 6.46614 38.519 6.17587 39.8252 6.17587C41.1315 6.17587 42.2835 6.46614 43.2813 7.04668C44.2972 7.62722 45.0864 8.45268 45.6488 9.52305C46.2293 10.5753 46.5196 11.818 46.5196 13.2512C46.5196 14.6844 46.2293 15.9362 45.6488 17.0066C45.0682 18.0588 44.27 18.8752 43.2541 19.4557C42.2563 20.0363 41.1042 20.3266 39.798 20.3266ZM39.798 17.5781C40.4874 17.5781 41.1224 17.4238 41.7029 17.1154C42.2835 16.807 42.7461 16.3353 43.0908 15.7004C43.4536 15.0473 43.635 14.2309 43.635 13.2512C43.635 12.2534 43.4536 11.437 43.0908 10.8021C42.7461 10.1671 42.2835 9.6954 41.7029 9.38699C41.1405 9.07857 40.5146 8.92437 39.8252 8.92437C39.1358 8.92437 38.5009 9.07857 37.9203 9.38699C37.3398 9.6954 36.8681 10.1671 36.5053 10.8021C36.1606 11.437 35.9882 12.2534 35.9882 13.2512C35.9882 14.7388 36.3601 15.8364 37.104 16.544C37.8659 17.2334 38.7639 17.5781 39.798 17.5781ZM49.8289 25.9868V6.50242H52.3325L52.5502 8.5706H52.7135C53.0763 7.89935 53.6206 7.33695 54.3463 6.8834C55.0901 6.41171 55.97 6.17587 56.9859 6.17587C58.0381 6.17587 58.9997 6.448 59.8705 6.99226C60.7413 7.51837 61.4307 8.30754 61.9387 9.35977C62.4648 10.3939 62.7278 11.691 62.7278 13.2512C62.7278 14.7933 62.4557 16.0904 61.9114 17.1427C61.3853 18.1949 60.6687 18.9931 59.7616 19.5374C58.8545 20.0635 57.8386 20.3266 56.7138 20.3266C55.716 20.3266 54.8815 20.127 54.2102 19.7279C53.539 19.3287 53.0401 18.8752 52.7135 18.3672V25.9868H49.8289ZM56.224 17.5781C57.2399 17.5781 58.0835 17.2152 58.7548 16.4895C59.4441 15.7639 59.7888 14.6754 59.7888 13.224C59.7888 11.7726 59.4441 10.6932 58.7548 9.98567C58.0835 9.27814 57.2399 8.92437 56.224 8.92437C55.1899 8.92437 54.3281 9.28721 53.6387 10.0129C52.9675 10.7204 52.6319 11.7999 52.6319 13.2512C52.6319 14.6844 52.9675 15.7639 53.6387 16.4895C54.3281 17.2152 55.1899 17.5781 56.224 17.5781ZM72.1601 4.43425C71.5251 4.43425 70.9899 4.23469 70.5545 3.83556C70.1372 3.4183 69.9286 2.91033 69.9286 2.31164C69.9286 1.71296 70.1372 1.21406 70.5545 0.814936C70.9899 0.415814 71.5251 0.216253 72.1601 0.216253C72.8132 0.216253 73.3484 0.415814 73.7656 0.814936C74.201 1.21406 74.4187 1.71296 74.4187 2.31164C74.4187 2.91033 74.201 3.4183 73.7656 3.83556C73.3484 4.23469 72.8132 4.43425 72.1601 4.43425ZM66.7447 20V17.4964H70.9899V9.90403C70.9899 9.30535 70.6996 9.00601 70.1191 9.00601H67.1257V6.50242H70.6361C71.7609 6.50242 72.5773 6.76548 73.0853 7.2916C73.6114 7.79957 73.8745 8.61596 73.8745 9.74075V17.4964H78.1197V20H66.7447ZM90.2188 20C88.8944 20 87.8422 19.6825 87.0621 19.0476C86.282 18.3944 85.8919 17.2424 85.8919 15.5915V8.95158H82.4903V6.50242H84.5041C85.4293 6.50242 85.9736 6.04888 86.1368 5.14178L86.545 2.96475H88.7765V6.50242H94.1102V8.95158H88.7765V15.5371C88.7765 16.2446 88.9307 16.7435 89.2391 17.0338C89.5657 17.3059 90.119 17.442 90.8991 17.442H94.0558V20H90.2188Z" fill="white"/>
</svg>
